# xmcd
#
# Track frame offsets: 
#        150
#        23532
#        43507
#        59347
#        70598
#        87739
#        102368
#        120973
#        136447
#
# Disc length: 2265 seconds
#
# Revision: 0
# Processed by: cddbd v1.5.2PL0 Copyright (c) Steve Scherf et al.
# Submitted via: ExactAudioCopy v1.3
#
DISCID=7108d709
DTITLE=David Gogo - 17 Vultures
DYEAR=2018
DGENRE=Blues Rock
TTITLE0=Thanks For The Distraction
TTITLE1=Tomcat Prowl
TTITLE2=17 Vultures
TTITLE3=Don't Bother Me
TTITLE4=Sulfite Boogie
TTITLE5=Yo Yo Blues
TTITLE6=From A Buick 6
TTITLE7=Too Good To Be True
TTITLE8=Shake My Head
EXTD=
EXTT0=
EXTT1=
EXTT2=
EXTT3=
EXTT4=
EXTT5=
EXTT6=
EXTT7=
EXTT8=
PLAYORDER=
